HIERARCHY
ROOT Hips
{
  OFFSET 54.2484 85.6925 16.1053
  CHANNELS 6 Xposition Yposition Zposition Zrotation Xrotation Yrotation
  JOINT spine
  {
    OFFSET 0 6.3926 0.367606
    CHANNELS 3 Zrotation Xrotation Yrotation
    JOINT spine1
    {
      OFFSET 0 9.17611 0
      CHANNELS 3 Zrotation Xrotation Yrotation
      JOINT spine2
      {
        OFFSET 0 8.79238 0
        CHANNELS 3 Zrotation Xrotation Yrotation
        JOINT Neck
        {
          OFFSET 0 22.5737 1.07624
          CHANNELS 3 Zrotation Xrotation Yrotation
          JOINT Head
          {
            OFFSET 0 6.82011 0
            CHANNELS 3 Zrotation Xrotation Yrotation
            End Site
            {
              OFFSET 0 16.5085 -5.44427
            }
          }
        }
        JOINT RightShoulder
        {
          OFFSET -3.70221 9.49509 -0.515508
          CHANNELS 3 Zrotation Xrotation Yrotation
          JOINT RightArm
          {
            OFFSET 0 12.4537 0
            CHANNELS 3 Zrotation Xrotation Yrotation
            JOINT RightArmRoll
            {
              OFFSET 0 6.28686 0
              CHANNELS 3 Zrotation Xrotation Yrotation
              JOINT RightForeArm
              {
                OFFSET 0 18.3114 0
                CHANNELS 3 Zrotation Xrotation Yrotation
                JOINT RightForeArmRoll
                {
                  OFFSET 0 7.05482 0
                  CHANNELS 3 Zrotation Xrotation Yrotation
                  JOINT RightHand
                  {
                    OFFSET 0 14.1575 0
                    CHANNELS 3 Zrotation Xrotation Yrotation
                    End Site
                    {
                      OFFSET 0 0 0
                    }
                  }
                }
              }
            }
          }
        }
        JOINT LeftShoulder
        {
          OFFSET 3.70221 9.49509 -0.515508
          CHANNELS 3 Zrotation Xrotation Yrotation
          JOINT LeftArm
          {
            OFFSET 0 12.4537 0
            CHANNELS 3 Zrotation Xrotation Yrotation
            JOINT LeftArmRoll
            {
              OFFSET 0 6.28686 0
              CHANNELS 3 Zrotation Xrotation Yrotation
              JOINT LeftForeArm
              {
                OFFSET 0 18.3114 0
                CHANNELS 3 Zrotation Xrotation Yrotation
                JOINT LeftForeArmRoll
                {
                  OFFSET 0 7.05482 0
                  CHANNELS 3 Zrotation Xrotation Yrotation
                  JOINT LeftHand
                  {
                    OFFSET 0 14.1575 0
                    CHANNELS 3 Zrotation Xrotation Yrotation
                    End Site
                    {
                      OFFSET 0 0 0
                    }
                  }
                }
              }
            }
          }
        }
      }
    }
  }
  JOINT RightUpLeg
  {
    OFFSET -5.66616 -1.03903 -0.87161
    CHANNELS 3 Zrotation Xrotation Yrotation
    JOINT RightUpLegRoll
    {
      OFFSET 0 16.6005 0
      CHANNELS 3 Zrotation Xrotation Yrotation
      JOINT RightLeg
      {
        OFFSET 0 -20.5572 0
        CHANNELS 3 Zrotation Xrotation Yrotation
        JOINT RightLegRoll
        {
          OFFSET 0 20.6244 0
          CHANNELS 3 Zrotation Xrotation Yrotation
          JOINT RightFoot
          {
            OFFSET 0 17.1664 0
            CHANNELS 3 Zrotation Xrotation Yrotation
            JOINT RightToeBase
            {
              OFFSET 0 14.3502 0
              CHANNELS 3 Zrotation Xrotation Yrotation
              End Site
              {
                OFFSET 0.00608252 6.94971 -0.801061
              }
            }
          }
        }
      }
    }
  }
  JOINT LeftUpLeg
  {
    OFFSET 5.66616 -1.03903 -0.87161
    CHANNELS 3 Zrotation Xrotation Yrotation
    JOINT LeftUpLegRoll
    {
      OFFSET 0 16.6006 0
      CHANNELS 3 Zrotation Xrotation Yrotation
      JOINT LeftLeg
      {
        OFFSET 0 20.5571 0
        CHANNELS 3 Zrotation Xrotation Yrotation
        JOINT LeftLegRoll
        {
          OFFSET 0 20.8151 0
          CHANNELS 3 Zrotation Xrotation Yrotation
          JOINT LeftFoot
          {
            OFFSET 0 16.9757 0
            CHANNELS 3 Zrotation Xrotation Yrotation
            JOINT LeftToeBase
            {
              OFFSET 0 14.3502 0
              CHANNELS 3 Zrotation Xrotation Yrotation
              End Site
              {
                OFFSET -0.0272592 6.94971 -0.80106
              }
            }
          }
        }
      }
    }
  }
}
MOTION
Frames: 12
Frame Time: 0.00208333
54.1414 85.6889 16.0441 -2.08985 -3.48374 -4.16502 -0.0619184 -0.997184 -0.143159 -0.108679 2.0086 -0.262591 -0.105649 3.65366 -0.261034 3.57378 7.18339 -1.15188 -1.15287 4.16822 -0.239201 63.4745 -0.763449 -0.97145 107.39 17.399 3.78 -1.01466e-005 6.06067e-008 -6.42491e-006 14.1441 5.45899 -1.06827 -3.98986e-006 -3.4161e-006 -3.00655 8.0289 -4.95144 0.697684 -54.6596 -1.46481 0.424669 -112.441 15.9895 -0.223295 -8.22915e-007 8.29972e-008 2.85742e-006 -9.78998 3.47582 0.848469 1.00233e-005 -1.31497e-006 3 -8.02896 -4.95145 -0.697687 176.003 -2.71606 0.911469 180 7.0153e-015 178.853 176.675 5.37351 179.782 3.98723e-007 3.14543e-006 0.0500716 -18.4529 67.6635 19.2649 8.13649 25.2327 -3.48774 -172.914 -2.30422 -0.745854 4.54188e-006 -4.6773e-006 -1.07687 -0.894386 -8.06905 0.541022 -1.35372e-006 2.67157e-006 -0.0895861 18.9352 69.938 -21.2083 -8.13657 25.2338 3.48625 
54.1351 85.6898 16.0388 -2.08778 -3.48403 -4.16228 -0.0619326 -0.997528 -0.142357 -0.109135 2.00791 -0.261767 -0.106113 3.65297 -0.260195 3.57447 7.19117 -1.15429 -1.15253 4.16587 -0.241218 63.4726 -0.767092 -0.973289 107.395 17.4003 3.77241 -1.01466e-005 6.06067e-008 -6.42491e-006 14.1462 5.46956 -1.06968 -3.98986e-006 -3.4161e-006 -3.00655 8.0289 -4.95144 0.697684 -54.6624 -1.45157 0.416026 -112.444 15.9874 -0.213747 -8.22915e-007 8.29972e-008 2.85742e-006 -9.79586 3.4974 0.850457 1.00233e-005 -1.31497e-006 3 -8.02896 -4.95145 -0.697687 176 -2.71662 0.914512 180 7.0153e-015 178.853 176.673 5.37244 179.782 3.98723e-007 3.14543e-006 0.0500716 -18.4529 67.6635 19.2649 8.13649 25.2327 -3.48774 -172.917 -2.30342 -0.74371 4.54188e-006 -4.6773e-006 -1.07687 -0.893831 -8.07014 0.541085 -1.35372e-006 2.67157e-006 -0.0895861 18.9365 69.9388 -21.2097 -8.13657 25.2338 3.48625 
54.1374 85.6859 16.0434 -2.08556 -3.48426 -4.15942 -0.0619538 -0.99791 -0.141532 -0.109597 2.00715 -0.260863 -0.106586 3.65221 -0.259276 3.57505 7.19936 -1.15682 -1.15221 4.16336 -0.243376 63.4705 -0.771105 -0.975301 107.401 17.4016 3.76531 -1.01466e-005 6.06067e-008 -6.42491e-006 14.1481 5.4794 -1.07101 -3.98986e-006 -3.4161e-006 -3.00655 8.0289 -4.95144 0.697684 -54.6656 -1.43748 0.406847 -112.446 15.9851 -0.204529 -8.22915e-007 8.29972e-008 2.85742e-006 -9.80168 3.51905 0.852444 1.00233e-005 -1.31497e-006 3 -8.02896 -4.95145 -0.697687 175.996 -2.71712 0.917666 180 7.0153e-015 178.853 176.67 5.37133 179.783 3.98723e-007 3.14543e-006 0.0500716 -18.4529 67.6636 19.265 8.13649 25.2327 -3.48774 -172.921 -2.30245 -0.741421 4.54188e-006 -4.6773e-006 -1.07687 -0.893249 -8.07138 0.54115 -1.35372e-006 2.67157e-006 -0.0895861 18.938 69.9396 -21.2112 -8.13657 25.2338 3.48625 
54.1337 85.6861 16.0404 -2.08323 -3.48444 -4.15645 -0.0619797 -0.99832 -0.14069 -0.110066 2.00633 -0.259902 -0.107065 3.65139 -0.2583 3.57555 7.20785 -1.15943 -1.1519 4.16074 -0.245633 63.4681 -0.775376 -0.977435 107.407 17.403 3.75856 -1.01466e-005 6.06067e-008 -6.42491e-006 14.1497 5.48875 -1.07228 -3.98986e-006 -3.4161e-006 -3.00655 8.0289 -4.95144 0.697684 -54.669 -1.4228 0.397292 -112.449 15.9825 -0.195543 -8.22915e-007 8.29972e-008 2.85742e-006 -9.80745 3.54076 0.85443 1.00233e-005 -1.31497e-006 3 -8.02896 -4.95145 -0.697687 175.993 -2.71757 0.920898 180 7.0153e-015 178.853 176.668 5.37016 179.783 3.98723e-007 3.14543e-006 0.0500716 -18.4529 67.6636 19.265 8.13649 25.2327 -3.48774 -172.924 -2.30137 -0.739032 4.54188e-006 -4.6773e-006 -1.07687 -0.892648 -8.07271 0.541216 -1.35372e-006 2.67157e-006 -0.0895861 18.9395 69.9405 -21.2127 -8.13657 25.2338 3.48625 
54.1332 85.6858 16.0423 -2.08085 -3.4846 -4.15344 -0.0620084 -0.998745 -0.13984 -0.110537 2.00548 -0.258909 -0.107546 3.65054 -0.257292 3.57601 7.2165 -1.16209 -1.15161 4.15805 -0.247946 63.4656 -0.779796 -0.979639 107.413 17.4044 3.75199 -1.01466e-005 6.06066e-008 -6.42491e-006 14.1512 5.4978 -1.07352 -3.98986e-006 -3.4161e-006 -3.00655 8.0289 -4.95144 0.697684 -54.6725 -1.40778 0.387522 -112.451 15.9799 -0.186688 -8.22915e-007 8.29972e-008 2.85742e-006 -9.81319 3.5625 0.856415 1.00233e-005 -1.31497e-006 3 -8.02896 -4.95145 -0.697687 175.989 -2.71798 0.924174 180 7.0153e-015 178.853 176.666 5.36898 179.783 3.98723e-007 3.14543e-006 0.0500716 -18.453 67.6636 19.265 8.13649 25.2327 -3.48774 -172.928 -2.30021 -0.736585 4.54188e-006 -4.6773e-006 -1.07687 -0.892037 -8.0741 0.541284 -1.35372e-006 2.67157e-006 -0.0895861 18.941 69.9415 -21.2143 -8.13657 25.2338 3.48625 
54.139 85.6862 16.042 -2.07845 -3.48475 -4.15041 -0.0620378 -0.999173 -0.138988 -0.111009 2.00462 -0.257908 -0.108029 3.64968 -0.256276 3.57645 7.2252 -1.16477 -1.15132 4.15534 -0.250274 63.4631 -0.784252 -0.981861 107.419 17.4057 3.74548 -1.01466e-005 6.06066e-008 -6.42491e-006 14.1526 5.50678 -1.07474 -3.98986e-006 -3.4161e-006 -3.00655 8.0289 -4.95144 0.697684 -54.6761 -1.39268 0.377698 -112.453 15.9773 -0.177867 -8.22915e-007 8.29972e-008 2.85742e-006 -9.81893 3.58425 0.8584 1.00233e-005 -1.31497e-006 3 -8.02896 -4.95145 -0.697687 175.985 -2.7184 0.927461 180 7.0153e-015 178.853 176.664 5.36777 179.783 3.98723e-007 3.14543e-006 0.0500716 -18.453 67.6637 19.2651 8.13649 25.2327 -3.48774 -172.932 -2.29904 -0.734123 4.54188e-006 -4.6773e-006 -1.07687 -0.891423 -8.0755 0.541352 -1.35372e-006 2.67157e-006 -0.0895861 18.9426 69.9424 -21.2159 -8.13657 25.2338 3.48625 
54.131 85.6844 16.0437 -2.07608 -3.48491 -4.14741 -0.0620658 -0.999594 -0.13814 -0.111479 2.00378 -0.256923 -0.10851 3.64883 -0.255276 3.57692 7.23381 -1.16742 -1.15103 4.15267 -0.252573 63.4606 -0.788634 -0.984047 107.425 17.4071 3.73886 -1.01466e-005 6.06067e-008 -6.42491e-006 14.1541 5.51591 -1.07598 -3.98986e-006 -3.4161e-006 -3.00655 8.0289 -4.95144 0.697684 -54.6795 -1.37775 0.367982 -112.456 15.9747 -0.16898 -8.22915e-007 8.29972e-008 2.85742e-006 -9.82469 3.60598 0.860386 1.00233e-005 -1.31497e-006 3 -8.02896 -4.95145 -0.697687 175.981 -2.71882 0.930726 180 7.0153e-015 178.853 176.661 5.36658 179.783 3.98723e-007 3.14543e-006 0.0500716 -18.453 67.6637 19.2651 8.13649 25.2327 -3.48774 -172.935 -2.2979 -0.731691 4.54188e-006 -4.6773e-006 -1.07687 -0.890814 -8.07687 0.541419 -1.35372e-006 2.67157e-006 -0.0895861 18.9441 69.9434 -21.2175 -8.13657 25.2338 3.48625 
54.1292 85.6818 16.0372 -2.07378 -3.4851 -4.14448 -0.0620904 -0.999996 -0.137303 -0.111946 2.00297 -0.255979 -0.108987 3.64803 -0.254317 3.57745 7.24221 -1.17001 -1.15072 4.15008 -0.254802 63.4583 -0.792832 -0.986147 107.43 17.4085 3.73201 -1.01466e-005 6.06067e-008 -6.42491e-006 14.1558 5.5254 -1.07727 -3.98986e-006 -3.4161e-006 -3.00655 8.0289 -4.95144 0.697684 -54.6828 -1.36324 0.358535 -112.458 15.9722 -0.159928 -8.22915e-007 8.29972e-008 2.85742e-006 -9.83048 3.62767 0.862374 1.00233e-005 -1.31497e-006 3 -8.02896 -4.95145 -0.697687 175.977 -2.71928 0.933936 180 7.0153e-015 178.853 176.659 5.36543 179.783 3.98723e-007 3.14543e-006 0.0500716 -18.453 67.6637 19.2651 8.13649 25.2327 -3.48774 -172.939 -2.29685 -0.72933 4.54188e-006 -4.6773e-006 -1.07687 -0.890218 -8.07817 0.541485 -1.35372e-006 2.67157e-006 -0.0895861 18.9456 69.9443 -21.2191 -8.13657 25.2338 3.48625 
54.1384 85.6859 16.0436 -2.07161 -3.48535 -4.14165 -0.0621094 -1.00037 -0.136485 -0.112406 2.00223 -0.255098 -0.109457 3.64729 -0.253422 3.57806 7.25028 -1.1725 -1.1504 4.14762 -0.256917 63.4563 -0.796734 -0.988107 107.436 17.4098 3.72476 -1.01466e-005 6.06067e-008 -6.42491e-006 14.1577 5.53546 -1.07863 -3.98986e-006 -3.4161e-006 -3.00655 8.0289 -4.95144 0.697684 -54.6859 -1.3494 0.349518 -112.461 15.9699 -0.150613 -8.22915e-007 8.29972e-008 2.85742e-006 -9.83633 3.6493 0.864362 1.00233e-005 -1.31497e-006 3 -8.02896 -4.95145 -0.697687 175.974 -2.7198 0.937056 180 7.0153e-015 178.853 176.657 5.36433 179.783 3.98723e-007 3.14543e-006 0.0500716 -18.4531 67.6638 19.2652 8.13649 25.2327 -3.48774 -172.942 -2.29594 -0.727085 4.54188e-006 -4.6773e-006 -1.07687 -0.889644 -8.07936 0.54155 -1.35372e-006 2.67157e-006 -0.0895861 18.947 69.9451 -21.2205 -8.13657 25.2338 3.48625 
54.1297 85.6855 16.0477 -2.06959 -3.48567 -4.13897 -0.0621207 -1.00069 -0.135692 -0.112859 2.00158 -0.254306 -0.109917 3.64663 -0.252616 3.5788 7.25789 -1.17486 -1.15004 4.14534 -0.258877 63.4546 -0.800229 -0.989876 107.441 17.4111 3.71698 -1.01466e-005 6.06067e-008 -6.42491e-006 14.16 5.54631 -1.08008 -3.98986e-006 -3.4161e-006 -3.00655 8.0289 -4.95144 0.697684 -54.6886 -1.3365 0.341092 -112.464 15.9679 -0.140935 -8.22915e-007 8.29972e-008 2.85742e-006 -9.84225 3.67084 0.866352 1.00233e-005 -1.31497e-006 3 -8.02896 -4.95145 -0.697687 175.97 -2.72039 0.940055 180 7.0153e-015 178.853 176.655 5.3633 179.784 3.98723e-007 3.14543e-006 0.0500716 -18.4531 67.6638 19.2652 8.13649 25.2327 -3.48774 -172.945 -2.29521 -0.724998 4.54188e-006 -4.6773e-006 -1.07687 -0.8891 -8.08041 0.541611 -1.35372e-006 2.67157e-006 -0.0895861 18.9484 69.9459 -21.2219 -8.13657 25.2338 3.48625 
54.1351 85.6819 16.0419 -2.06779 -3.48607 -4.13647 -0.0621224 -1.00097 -0.134932 -0.1133 2.00103 -0.253627 -0.110366 3.64608 -0.251923 3.57969 7.26491 -1.17706 -1.14965 4.14329 -0.260639 63.4533 -0.803206 -0.991401 107.446 17.4124 3.70852 -1.01466e-005 6.06067e-008 -6.42491e-006 14.1626 5.55817 -1.08166 -3.98986e-006 -3.4161e-006 -3.00655 8.0289 -4.95144 0.697684 -54.691 -1.32478 0.333417 -112.467 15.9663 -0.130795 -8.22915e-007 8.29972e-008 2.85742e-006 -9.84827 3.69226 0.868345 1.00233e-005 -1.31497e-006 3 -8.02896 -4.95145 -0.697687 175.967 -2.72108 0.942899 180 7.0153e-015 178.853 176.652 5.36236 179.784 3.98723e-007 3.14543e-006 0.0500716 -18.4531 67.6638 19.2652 8.13649 25.2327 -3.48774 -172.948 -2.29472 -0.723113 4.54188e-006 -4.6773e-006 -1.07687 -0.888593 -8.08126 0.541669 -1.35372e-006 2.67157e-006 -0.0895861 18.9496 69.9465 -21.2231 -8.13657 25.2338 3.48625 
54.1312 85.6829 16.0397 -2.06624 -3.48659 -4.1342 -0.0621124 -1.00118 -0.13421 -0.11373 2.00062 -0.253084 -0.110801 3.64566 -0.251367 3.58077 7.27122 -1.17905 -1.14921 4.14152 -0.262161 63.4525 -0.805555 -0.992631 107.451 17.4136 3.69922 -1.01466e-005 6.06066e-008 -6.42491e-006 14.1658 5.57125 -1.08338 -3.98986e-006 -3.4161e-006 -3.00655 8.0289 -4.95144 0.697684 -54.6928 -1.3145 0.326656 -112.47 15.9651 -0.120094 -8.22915e-007 8.29972e-008 2.85742e-006 -9.85441 3.71355 0.870341 1.00233e-005 -1.31497e-006 3 -8.02896 -4.95145 -0.697687 175.965 -2.7219 0.945555 180 7.0153e-015 178.853 176.65 5.36155 179.784 3.98723e-007 3.14543e-006 0.0500716 -18.4531 67.6638 19.2652 8.13649 25.2327 -3.48774 -172.951 -2.29451 -0.721473 4.54188e-006 -4.6773e-006 -1.07687 -0.888132 -8.08187 0.541723 -1.35372e-006 2.67157e-006 -0.0895861 18.9506 69.9471 -21.2242 -8.13657 25.2338 3.48625 
